# MagicaVoxel @ Ephtracy

# group
o 

# material
mtllib PlayerV2.mtl
usemtl palette

# normals
vn -1 0 0
vn 1 0 0
vn 0 0 1
vn 0 0 -1
vn 0 -1 0
vn 0 1 0

# texcoords
vt 0.0957031 0.5
vt 0.0996094 0.5
vt 0.107422 0.5
vt 0.158203 0.5
vt 0.162109 0.5
vt 0.166016 0.5
vt 0.169922 0.5

# verts
v -1.9 2 1.7
v -1.9 2 1.6
v -1.9 2.1 1.7
v -1.9 2.1 1.6
v -1.5 2 1.7
v -1.5 2 1.6
v -1.5 2.1 1.7
v -1.5 2.1 1.6
v -1.2 2.2 1.8
v -1.2 2.2 1.6
v -1.2 2.4 1.8
v -1.2 2.4 1.7
v -1.2 2.5 1.7
v -1.2 2.5 1.6
v -1.2 2.7 1.8
v -1.2 2.7 1.7
v -1.2 2.8 1.8
v -1.2 2.8 1.7
v -1.2 2.8 1.6
v -1.1 0.5 1.7
v -1.1 0.5 1.6
v -1.1 0.6 1.7
v -1.1 0.6 1.6
v -1.1 0.9 1.7
v -1.1 0.9 1.6
v -1.1 1 1.7
v -1.1 1 1.6
v -1.1 1.1 1.7
v -1.1 1.1 1.6
v -1.1 1.3 1.7
v -1.1 1.3 1.6
v -1.1 1.4 1.7
v -1.1 1.4 1.6
v -1.1 1.7 1.7
v -1.1 1.7 1.6
v -1.1 1.8 1.7
v -1.1 1.8 1.6
v -1.1 2 1.7
v -1.1 2 1.6
v -1.1 2.1 1.7
v -1.1 2.1 1.6
v -0.9 0.5 1.7
v -0.9 0.5 1.6
v -0.9 0.6 1.7
v -0.9 0.6 1.6
v -0.9 0.9 1.7
v -0.9 0.9 1.6
v -0.9 1 1.7
v -0.9 1 1.6
v -0.9 1.1 1.7
v -0.9 1.1 1.6
v -0.9 1.3 1.7
v -0.9 1.3 1.6
v -0.7 2 1.7
v -0.7 2 1.6
v -0.7 2.1 1.7
v -0.7 2.1 1.6
v -0.3 2 1.7
v -0.3 2 1.6
v -0.3 2.1 1.7
v -0.3 2.1 1.6
v -1.6 2 1.7
v -1.6 2 1.6
v -1.6 2.1 1.7
v -1.6 2.1 1.6
v -1.2 2 1.7
v -1.2 2 1.6
v -1.2 2.1 1.7
v -1.2 2.1 1.6
v -1 0.5 1.7
v -1 0.5 1.6
v -1 0.6 1.7
v -1 0.6 1.6
v -1 0.9 1.7
v -1 0.9 1.6
v -1 1 1.7
v -1 1 1.6
v -1 1.1 1.7
v -1 1.1 1.6
v -1 1.3 1.7
v -1 1.3 1.6
v -0.8 0.5 1.7
v -0.8 0.5 1.6
v -0.8 0.6 1.7
v -0.8 0.6 1.6
v -0.8 0.9 1.7
v -0.8 0.9 1.6
v -0.8 1 1.7
v -0.8 1 1.6
v -0.8 1.1 1.7
v -0.8 1.1 1.6
v -0.8 1.3 1.7
v -0.8 1.3 1.6
v -0.8 1.4 1.7
v -0.8 1.4 1.6
v -0.8 1.7 1.7
v -0.8 1.7 1.6
v -0.8 1.8 1.7
v -0.8 1.8 1.6
v -0.8 2 1.7
v -0.8 2 1.6
v -0.8 2.1 1.7
v -0.8 2.1 1.6
v -0.7 2.2 1.8
v -0.7 2.2 1.6
v -0.7 2.4 1.7
v -0.7 2.4 1.6
v -0.7 2.5 1.8
v -0.7 2.5 1.7
v -0.7 2.6 1.8
v -0.7 2.6 1.7
v -0.7 2.7 1.8
v -0.7 2.7 1.7
v -0.7 2.8 1.8
v -0.7 2.8 1.6
v -0.4 2 1.7
v -0.4 2 1.6
v -0.4 2.1 1.7
v -0.4 2.1 1.6
v 0 2 1.7
v 0 2 1.6
v 0 2.1 1.7
v 0 2.1 1.6
v -1.2 2.2 1.8
v -1.2 2.4 1.8
v -1.2 2.7 1.8
v -1.2 2.8 1.8
v -1.1 2.3 1.8
v -1.1 2.4 1.8
v -1.1 2.5 1.8
v -1.1 2.7 1.8
v -1.1 2.8 1.8
v -1 2.3 1.8
v -1 2.4 1.8
v -1 2.5 1.8
v -1 2.6 1.8
v -0.9 2.3 1.8
v -0.9 2.4 1.8
v -0.9 2.5 1.8
v -0.9 2.6 1.8
v -0.8 2.3 1.8
v -0.8 2.5 1.8
v -0.8 2.6 1.8
v -0.8 2.7 1.8
v -0.7 2.2 1.8
v -0.7 2.5 1.8
v -0.7 2.6 1.8
v -0.7 2.7 1.8
v -0.7 2.8 1.8
v -1.9 2 1.7
v -1.9 2.1 1.7
v -1.7 2 1.7
v -1.7 2.1 1.7
v -1.6 2 1.7
v -1.6 2.1 1.7
v -1.5 2 1.7
v -1.5 2.1 1.7
v -1.4 2 1.7
v -1.4 2.1 1.7
v -1.2 2 1.7
v -1.2 2.1 1.7
v -1.1 0.5 1.7
v -1.1 0.6 1.7
v -1.1 0.9 1.7
v -1.1 1 1.7
v -1.1 1.1 1.7
v -1.1 1.3 1.7
v -1.1 1.4 1.7
v -1.1 1.7 1.7
v -1.1 1.8 1.7
v -1.1 2 1.7
v -1.1 2.1 1.7
v -1 0.5 1.7
v -1 0.6 1.7
v -1 0.9 1.7
v -1 1 1.7
v -1 1.1 1.7
v -1 1.3 1.7
v -1 1.6 1.7
v -1 1.7 1.7
v -1 1.9 1.7
v -1 2 1.7
v -0.9 0.5 1.7
v -0.9 0.6 1.7
v -0.9 0.9 1.7
v -0.9 1 1.7
v -0.9 1.1 1.7
v -0.9 1.3 1.7
v -0.9 1.6 1.7
v -0.9 1.7 1.7
v -0.9 1.9 1.7
v -0.9 2 1.7
v -0.8 0.5 1.7
v -0.8 0.6 1.7
v -0.8 0.9 1.7
v -0.8 1 1.7
v -0.8 1.1 1.7
v -0.8 1.3 1.7
v -0.8 1.4 1.7
v -0.8 1.7 1.7
v -0.8 1.8 1.7
v -0.8 2 1.7
v -0.8 2.1 1.7
v -0.7 2 1.7
v -0.7 2.1 1.7
v -0.5 2 1.7
v -0.5 2.1 1.7
v -0.4 2 1.7
v -0.4 2.1 1.7
v -0.3 2 1.7
v -0.3 2.1 1.7
v -0.2 2 1.7
v -0.2 2.1 1.7
v 0 2 1.7
v 0 2.1 1.7
v -1.9 2 1.6
v -1.9 2.1 1.6
v -1.7 2 1.6
v -1.7 2.1 1.6
v -1.6 2 1.6
v -1.6 2.1 1.6
v -1.5 2 1.6
v -1.5 2.1 1.6
v -1.4 2 1.6
v -1.4 2.1 1.6
v -1.2 2 1.6
v -1.2 2.1 1.6
v -1.2 2.2 1.6
v -1.2 2.5 1.6
v -1.2 2.8 1.6
v -1.1 0.5 1.6
v -1.1 0.6 1.6
v -1.1 0.9 1.6
v -1.1 1 1.6
v -1.1 1.1 1.6
v -1.1 1.3 1.6
v -1.1 1.4 1.6
v -1.1 1.7 1.6
v -1.1 1.8 1.6
v -1.1 2 1.6
v -1.1 2.1 1.6
v -1.1 2.4 1.6
v -1.1 2.5 1.6
v -1.1 2.6 1.6
v -1.1 2.7 1.6
v -1 0.5 1.6
v -1 0.6 1.6
v -1 0.9 1.6
v -1 1 1.6
v -1 1.1 1.6
v -1 1.3 1.6
v -1 1.6 1.6
v -1 1.7 1.6
v -1 1.9 1.6
v -1 2 1.6
v -1 2.4 1.6
v -1 2.5 1.6
v -1 2.6 1.6
v -1 2.7 1.6
v -0.9 0.5 1.6
v -0.9 0.6 1.6
v -0.9 0.9 1.6
v -0.9 1 1.6
v -0.9 1.1 1.6
v -0.9 1.3 1.6
v -0.9 1.6 1.6
v -0.9 1.7 1.6
v -0.9 1.9 1.6
v -0.9 2 1.6
v -0.9 2.5 1.6
v -0.9 2.6 1.6
v -0.8 0.5 1.6
v -0.8 0.6 1.6
v -0.8 0.9 1.6
v -0.8 1 1.6
v -0.8 1.1 1.6
v -0.8 1.3 1.6
v -0.8 1.4 1.6
v -0.8 1.7 1.6
v -0.8 1.8 1.6
v -0.8 2 1.6
v -0.8 2.1 1.6
v -0.8 2.4 1.6
v -0.8 2.6 1.6
v -0.7 2 1.6
v -0.7 2.1 1.6
v -0.7 2.2 1.6
v -0.7 2.4 1.6
v -0.7 2.8 1.6
v -0.5 2 1.6
v -0.5 2.1 1.6
v -0.4 2 1.6
v -0.4 2.1 1.6
v -0.3 2 1.6
v -0.3 2.1 1.6
v -0.2 2 1.6
v -0.2 2.1 1.6
v 0 2 1.6
v 0 2.1 1.6
v -1.1 0.5 1.7
v -1 0.5 1.7
v -0.9 0.5 1.7
v -0.8 0.5 1.7
v -1.1 0.5 1.6
v -1 0.5 1.6
v -0.9 0.5 1.6
v -0.8 0.5 1.6
v -1.1 1 1.7
v -1 1 1.7
v -0.9 1 1.7
v -0.8 1 1.7
v -1.1 1 1.6
v -1 1 1.6
v -0.9 1 1.6
v -0.8 1 1.6
v -1.1 1.4 1.7
v -0.8 1.4 1.7
v -1.1 1.4 1.6
v -0.8 1.4 1.6
v -1.1 1.8 1.7
v -0.8 1.8 1.7
v -1.1 1.8 1.6
v -0.8 1.8 1.6
v -1.9 2 1.7
v -1.7 2 1.7
v -1.6 2 1.7
v -1.5 2 1.7
v -1.4 2 1.7
v -1.2 2 1.7
v -0.7 2 1.7
v -0.5 2 1.7
v -0.4 2 1.7
v -0.3 2 1.7
v -0.2 2 1.7
v 0 2 1.7
v -1.9 2 1.6
v -1.7 2 1.6
v -1.6 2 1.6
v -1.5 2 1.6
v -1.4 2 1.6
v -1.2 2 1.6
v -0.7 2 1.6
v -0.5 2 1.6
v -0.4 2 1.6
v -0.3 2 1.6
v -0.2 2 1.6
v 0 2 1.6
v -1.2 2.2 1.8
v -0.7 2.2 1.8
v -1.2 2.2 1.6
v -0.7 2.2 1.6
v -1.1 0.9 1.7
v -1 0.9 1.7
v -0.9 0.9 1.7
v -0.8 0.9 1.7
v -1.1 0.9 1.6
v -1 0.9 1.6
v -0.9 0.9 1.6
v -0.8 0.9 1.6
v -1.1 1.3 1.7
v -1 1.3 1.7
v -0.9 1.3 1.7
v -0.8 1.3 1.7
v -1.1 1.3 1.6
v -1 1.3 1.6
v -0.9 1.3 1.6
v -0.8 1.3 1.6
v -1.1 1.7 1.7
v -1 1.7 1.7
v -0.9 1.7 1.7
v -0.8 1.7 1.7
v -1.1 1.7 1.6
v -1 1.7 1.6
v -0.9 1.7 1.6
v -0.8 1.7 1.6
v -1.9 2.1 1.7
v -1.7 2.1 1.7
v -1.6 2.1 1.7
v -1.5 2.1 1.7
v -1.4 2.1 1.7
v -1.2 2.1 1.7
v -1.1 2.1 1.7
v -0.8 2.1 1.7
v -0.7 2.1 1.7
v -0.5 2.1 1.7
v -0.4 2.1 1.7
v -0.3 2.1 1.7
v -0.2 2.1 1.7
v 0 2.1 1.7
v -1.9 2.1 1.6
v -1.7 2.1 1.6
v -1.6 2.1 1.6
v -1.5 2.1 1.6
v -1.4 2.1 1.6
v -1.2 2.1 1.6
v -1.1 2.1 1.6
v -0.8 2.1 1.6
v -0.7 2.1 1.6
v -0.5 2.1 1.6
v -0.4 2.1 1.6
v -0.3 2.1 1.6
v -0.2 2.1 1.6
v 0 2.1 1.6
v -1.2 2.8 1.8
v -1.1 2.8 1.8
v -0.7 2.8 1.8
v -1.2 2.8 1.7
v -1.1 2.8 1.7
v -1.2 2.8 1.6
v -0.7 2.8 1.6

# faces
f 3/3/1 2/3/1 1/3/1
f 4/3/1 2/3/1 3/3/1
f 7/6/1 6/6/1 5/6/1
f 8/6/1 6/6/1 7/6/1
f 11/4/1 10/4/1 9/4/1
f 12/4/1 10/4/1 11/4/1
f 13/5/1 12/5/1 11/5/1
f 13/4/1 10/4/1 12/4/1
f 14/4/1 10/4/1 13/4/1
f 15/5/1 13/5/1 11/5/1
f 15/5/1 14/5/1 13/5/1
f 16/5/1 14/5/1 15/5/1
f 17/4/1 16/4/1 15/4/1
f 18/5/1 14/5/1 16/5/1
f 18/4/1 16/4/1 17/4/1
f 19/5/1 14/5/1 18/5/1
f 22/7/1 21/7/1 20/7/1
f 23/7/1 21/7/1 22/7/1
f 24/6/1 23/6/1 22/6/1
f 25/6/1 23/6/1 24/6/1
f 28/6/1 27/6/1 26/6/1
f 29/6/1 27/6/1 28/6/1
f 30/5/1 29/5/1 28/5/1
f 31/5/1 29/5/1 30/5/1
f 34/5/1 33/5/1 32/5/1
f 35/5/1 33/5/1 34/5/1
f 38/1/1 37/1/1 36/1/1
f 39/1/1 37/1/1 38/1/1
f 40/2/1 39/2/1 38/2/1
f 41/2/1 39/2/1 40/2/1
f 44/7/1 43/7/1 42/7/1
f 45/7/1 43/7/1 44/7/1
f 46/6/1 45/6/1 44/6/1
f 47/6/1 45/6/1 46/6/1
f 50/6/1 49/6/1 48/6/1
f 51/6/1 49/6/1 50/6/1
f 52/5/1 51/5/1 50/5/1
f 53/5/1 51/5/1 52/5/1
f 56/2/1 55/2/1 54/2/1
f 57/2/1 55/2/1 56/2/1
f 60/6/1 59/6/1 58/6/1
f 61/6/1 59/6/1 60/6/1
f 62/6/2 63/6/2 64/6/2
f 64/6/2 63/6/2 65/6/2
f 66/2/2 67/2/2 68/2/2
f 68/2/2 67/2/2 69/2/2
f 70/7/2 71/7/2 72/7/2
f 72/7/2 71/7/2 73/7/2
f 72/6/2 73/6/2 74/6/2
f 74/6/2 73/6/2 75/6/2
f 76/6/2 77/6/2 78/6/2
f 78/6/2 77/6/2 79/6/2
f 78/5/2 79/5/2 80/5/2
f 80/5/2 79/5/2 81/5/2
f 82/7/2 83/7/2 84/7/2
f 84/7/2 83/7/2 85/7/2
f 84/6/2 85/6/2 86/6/2
f 86/6/2 85/6/2 87/6/2
f 88/6/2 89/6/2 90/6/2
f 90/6/2 89/6/2 91/6/2
f 90/5/2 91/5/2 92/5/2
f 92/5/2 91/5/2 93/5/2
f 94/5/2 95/5/2 96/5/2
f 96/5/2 95/5/2 97/5/2
f 98/1/2 99/1/2 100/1/2
f 100/1/2 99/1/2 101/1/2
f 100/2/2 101/2/2 102/2/2
f 102/2/2 101/2/2 103/2/2
f 104/4/2 105/4/2 106/4/2
f 106/4/2 105/4/2 107/4/2
f 104/4/2 106/4/2 108/4/2
f 106/5/2 107/5/2 109/5/2
f 108/4/2 106/4/2 109/4/2
f 108/5/2 109/5/2 110/5/2
f 109/5/2 107/5/2 111/5/2
f 110/5/2 109/5/2 111/5/2
f 110/4/2 111/4/2 112/4/2
f 111/5/2 107/5/2 113/5/2
f 112/4/2 111/4/2 113/4/2
f 112/5/2 113/5/2 114/5/2
f 113/5/2 107/5/2 115/5/2
f 114/5/2 113/5/2 115/5/2
f 116/6/2 117/6/2 118/6/2
f 118/6/2 117/6/2 119/6/2
f 120/3/2 121/3/2 122/3/2
f 122/3/2 121/3/2 123/3/2
f 128/4/3 125/4/3 124/4/3
f 129/5/3 126/5/3 125/5/3
f 129/4/3 125/4/3 128/4/3
f 130/5/3 126/5/3 129/5/3
f 131/4/3 127/4/3 126/4/3
f 131/5/3 126/5/3 130/5/3
f 132/4/3 127/4/3 131/4/3
f 133/3/3 130/3/3 129/3/3
f 133/4/3 128/4/3 124/4/3
f 133/3/3 129/3/3 128/3/3
f 134/3/3 130/3/3 133/3/3
f 135/5/3 132/5/3 131/5/3
f 135/3/3 130/3/3 134/3/3
f 135/5/3 131/5/3 130/5/3
f 136/5/3 132/5/3 135/5/3
f 137/4/3 134/4/3 133/4/3
f 137/4/3 133/4/3 124/4/3
f 138/5/3 135/5/3 134/5/3
f 138/4/3 134/4/3 137/4/3
f 139/4/3 136/4/3 135/4/3
f 139/5/3 135/5/3 138/5/3
f 140/5/3 132/5/3 136/5/3
f 140/4/3 136/4/3 139/4/3
f 141/3/3 139/3/3 138/3/3
f 141/3/3 138/3/3 137/3/3
f 141/4/3 137/4/3 124/4/3
f 142/5/3 140/5/3 139/5/3
f 142/3/3 139/3/3 141/3/3
f 143/5/3 132/5/3 140/5/3
f 143/5/3 140/5/3 142/5/3
f 144/5/3 132/5/3 143/5/3
f 145/4/3 142/4/3 141/4/3
f 145/4/3 141/4/3 124/4/3
f 146/5/3 143/5/3 142/5/3
f 146/4/3 142/4/3 145/4/3
f 147/4/3 144/4/3 143/4/3
f 147/5/3 143/5/3 146/5/3
f 148/5/3 132/5/3 144/5/3
f 148/4/3 144/4/3 147/4/3
f 149/5/3 132/5/3 148/5/3
f 152/3/3 151/3/3 150/3/3
f 153/3/3 151/3/3 152/3/3
f 154/6/3 153/6/3 152/6/3
f 155/6/3 153/6/3 154/6/3
f 158/6/3 157/6/3 156/6/3
f 159/6/3 157/6/3 158/6/3
f 160/2/3 159/2/3 158/2/3
f 161/2/3 159/2/3 160/2/3
f 173/7/3 163/7/3 162/7/3
f 174/6/3 164/6/3 163/6/3
f 174/7/3 163/7/3 173/7/3
f 175/6/3 164/6/3 174/6/3
f 176/6/3 166/6/3 165/6/3
f 177/5/3 167/5/3 166/5/3
f 177/6/3 166/6/3 176/6/3
f 178/5/3 167/5/3 177/5/3
f 179/5/3 169/5/3 168/5/3
f 180/5/3 169/5/3 179/5/3
f 181/1/3 171/1/3 170/1/3
f 182/2/3 172/2/3 171/2/3
f 182/1/3 171/1/3 181/1/3
f 189/1/3 180/1/3 179/1/3
f 189/5/3 179/5/3 168/5/3
f 190/1/3 180/1/3 189/1/3
f 191/1/3 181/1/3 170/1/3
f 191/2/3 182/2/3 181/2/3
f 192/2/3 172/2/3 182/2/3
f 192/2/3 182/2/3 191/2/3
f 193/7/3 184/7/3 183/7/3
f 194/6/3 185/6/3 184/6/3
f 194/7/3 184/7/3 193/7/3
f 195/6/3 185/6/3 194/6/3
f 196/6/3 187/6/3 186/6/3
f 197/5/3 188/5/3 187/5/3
f 197/6/3 187/6/3 196/6/3
f 198/5/3 188/5/3 197/5/3
f 199/5/3 190/5/3 189/5/3
f 199/5/3 189/5/3 168/5/3
f 200/5/3 190/5/3 199/5/3
f 201/1/3 191/1/3 170/1/3
f 201/1/3 192/1/3 191/1/3
f 202/2/3 172/2/3 192/2/3
f 202/1/3 192/1/3 201/1/3
f 203/2/3 172/2/3 202/2/3
f 206/2/3 205/2/3 204/2/3
f 207/2/3 205/2/3 206/2/3
f 208/6/3 207/6/3 206/6/3
f 209/6/3 207/6/3 208/6/3
f 212/6/3 211/6/3 210/6/3
f 213/6/3 211/6/3 212/6/3
f 214/3/3 213/3/3 212/3/3
f 215/3/3 213/3/3 214/3/3
f 216/3/4 217/3/4 218/3/4
f 218/3/4 217/3/4 219/3/4
f 218/6/4 219/6/4 220/6/4
f 220/6/4 219/6/4 221/6/4
f 222/6/4 223/6/4 224/6/4
f 224/6/4 223/6/4 225/6/4
f 224/2/4 225/2/4 226/2/4
f 226/2/4 225/2/4 227/2/4
f 228/4/4 229/4/4 242/4/4
f 229/5/4 230/5/4 243/5/4
f 242/4/4 229/4/4 243/4/4
f 243/5/4 230/5/4 244/5/4
f 244/5/4 230/5/4 245/5/4
f 231/7/4 232/7/4 246/7/4
f 232/6/4 233/6/4 247/6/4
f 246/7/4 232/7/4 247/7/4
f 247/6/4 233/6/4 248/6/4
f 234/6/4 235/6/4 249/6/4
f 235/5/4 236/5/4 250/5/4
f 249/6/4 235/6/4 250/6/4
f 250/5/4 236/5/4 251/5/4
f 237/5/4 238/5/4 252/5/4
f 252/5/4 238/5/4 253/5/4
f 239/1/4 240/1/4 254/1/4
f 240/2/4 241/2/4 255/2/4
f 254/1/4 240/1/4 255/1/4
f 228/4/4 242/4/4 256/4/4
f 242/5/4 243/5/4 256/5/4
f 243/5/4 244/5/4 256/5/4
f 256/5/4 244/5/4 257/5/4
f 244/4/4 245/4/4 258/4/4
f 257/5/4 244/5/4 258/5/4
f 245/5/4 230/5/4 259/5/4
f 258/4/4 245/4/4 259/4/4
f 252/1/4 253/1/4 266/1/4
f 237/5/4 252/5/4 266/5/4
f 266/1/4 253/1/4 267/1/4
f 239/1/4 254/1/4 268/1/4
f 254/2/4 255/2/4 268/2/4
f 255/2/4 241/2/4 269/2/4
f 268/2/4 255/2/4 269/2/4
f 257/5/4 258/5/4 270/5/4
f 258/5/4 259/5/4 270/5/4
f 256/4/4 257/4/4 270/4/4
f 270/5/4 259/5/4 271/5/4
f 260/7/4 261/7/4 272/7/4
f 261/6/4 262/6/4 273/6/4
f 272/7/4 261/7/4 273/7/4
f 273/6/4 262/6/4 274/6/4
f 263/6/4 264/6/4 275/6/4
f 264/5/4 265/5/4 276/5/4
f 275/6/4 264/6/4 276/6/4
f 276/5/4 265/5/4 277/5/4
f 266/5/4 267/5/4 278/5/4
f 237/5/4 266/5/4 278/5/4
f 278/5/4 267/5/4 279/5/4
f 239/1/4 268/1/4 280/1/4
f 268/1/4 269/1/4 280/1/4
f 269/2/4 241/2/4 281/2/4
f 280/1/4 269/1/4 281/1/4
f 281/2/4 241/2/4 282/2/4
f 228/4/4 256/4/4 283/4/4
f 256/4/4 270/4/4 283/4/4
f 270/4/4 271/4/4 283/4/4
f 271/5/4 259/5/4 284/5/4
f 283/4/4 271/4/4 284/4/4
f 228/4/4 283/4/4 287/4/4
f 283/5/4 284/5/4 288/5/4
f 287/4/4 283/4/4 288/4/4
f 284/5/4 259/5/4 289/5/4
f 288/5/4 284/5/4 289/5/4
f 259/5/4 230/5/4 289/5/4
f 285/2/4 286/2/4 290/2/4
f 290/2/4 286/2/4 291/2/4
f 290/6/4 291/6/4 292/6/4
f 292/6/4 291/6/4 293/6/4
f 294/6/4 295/6/4 296/6/4
f 296/6/4 295/6/4 297/6/4
f 296/3/4 297/3/4 298/3/4
f 298/3/4 297/3/4 299/3/4
f 304/7/5 301/7/5 300/7/5
f 305/7/5 301/7/5 304/7/5
f 306/7/5 303/7/5 302/7/5
f 307/7/5 303/7/5 306/7/5
f 312/6/5 309/6/5 308/6/5
f 313/6/5 309/6/5 312/6/5
f 314/6/5 311/6/5 310/6/5
f 315/6/5 311/6/5 314/6/5
f 318/5/5 317/5/5 316/5/5
f 319/5/5 317/5/5 318/5/5
f 322/1/5 321/1/5 320/1/5
f 323/1/5 321/1/5 322/1/5
f 336/3/5 325/3/5 324/3/5
f 337/6/5 326/6/5 325/6/5
f 337/3/5 325/3/5 336/3/5
f 338/6/5 326/6/5 337/6/5
f 339/6/5 328/6/5 327/6/5
f 340/2/5 329/2/5 328/2/5
f 340/6/5 328/6/5 339/6/5
f 341/2/5 329/2/5 340/2/5
f 342/2/5 331/2/5 330/2/5
f 343/6/5 332/6/5 331/6/5
f 343/2/5 331/2/5 342/2/5
f 344/6/5 332/6/5 343/6/5
f 345/6/5 334/6/5 333/6/5
f 346/3/5 335/3/5 334/3/5
f 346/6/5 334/6/5 345/6/5
f 347/3/5 335/3/5 346/3/5
f 350/4/5 349/4/5 348/4/5
f 351/4/5 349/4/5 350/4/5
f 352/6/6 353/6/6 356/6/6
f 356/6/6 353/6/6 357/6/6
f 354/6/6 355/6/6 358/6/6
f 358/6/6 355/6/6 359/6/6
f 360/5/6 361/5/6 364/5/6
f 364/5/6 361/5/6 365/5/6
f 362/5/6 363/5/6 366/5/6
f 366/5/6 363/5/6 367/5/6
f 368/5/6 369/5/6 372/5/6
f 369/1/6 370/1/6 373/1/6
f 372/5/6 369/5/6 373/5/6
f 370/5/6 371/5/6 374/5/6
f 373/1/6 370/1/6 374/1/6
f 374/5/6 371/5/6 375/5/6
f 376/3/6 377/3/6 390/3/6
f 377/6/6 378/6/6 391/6/6
f 390/3/6 377/3/6 391/3/6
f 391/6/6 378/6/6 392/6/6
f 379/6/6 380/6/6 393/6/6
f 380/2/6 381/2/6 394/2/6
f 393/6/6 380/6/6 394/6/6
f 394/2/6 381/2/6 395/2/6
f 382/2/6 383/2/6 396/2/6
f 396/2/6 383/2/6 397/2/6
f 384/2/6 385/2/6 398/2/6
f 385/6/6 386/6/6 399/6/6
f 398/2/6 385/2/6 399/2/6
f 399/6/6 386/6/6 400/6/6
f 387/6/6 388/6/6 401/6/6
f 388/3/6 389/3/6 402/3/6
f 401/6/6 388/6/6 402/6/6
f 402/3/6 389/3/6 403/3/6
f 404/4/6 405/4/6 407/4/6
f 405/5/6 406/5/6 408/5/6
f 407/4/6 405/4/6 408/4/6
f 407/5/6 408/5/6 409/5/6
f 408/5/6 406/5/6 410/5/6
f 409/5/6 408/5/6 410/5/6
