# Blender v2.93.3 OBJ File: 'DullBlend.blend'
# www.blender.org
mtllib DullBlade.mtl
o DullBlade
v -0.200000 2.290264 0.049999
v -0.200000 0.090264 -0.050001
v -0.200000 0.090264 0.049999
v -0.200000 2.290264 -0.050000
v -0.100000 0.090264 0.049999
v -0.100000 -0.109736 -0.050001
v -0.100000 -0.109736 0.049999
v -0.100000 0.090264 -0.050001
v -0.100000 2.190264 0.049999
v -0.100000 2.190264 -0.050001
v -0.100000 2.290264 0.049999
v -0.100000 2.290264 -0.050000
v 0.000000 2.090264 0.049999
v 0.000000 2.090264 -0.050001
v 0.000000 2.190264 0.049999
v 0.000000 2.190264 -0.050001
v 0.100000 -0.109736 0.049999
v 0.100000 -0.109736 -0.050001
v 0.100000 0.090264 0.049999
v 0.100000 0.090264 -0.050001
v 0.100000 1.990264 0.049999
v 0.100000 1.990264 -0.050001
v 0.100000 2.090264 0.049999
v 0.100000 2.090264 -0.050001
v 0.200000 0.090264 0.049999
v 0.200000 0.090264 -0.050001
v 0.200000 1.990264 0.049999
v 0.200000 1.990264 -0.050001
v -0.100000 0.090264 0.049999
v -0.200000 2.290264 0.049999
v -0.200000 0.090264 0.049999
v -0.100000 2.190264 0.049999
v -0.100000 2.290264 0.049999
v 0.000000 2.090264 0.049999
v 0.000000 2.190264 0.049999
v 0.100000 -0.109736 0.049999
v -0.100000 -0.109736 0.049999
v 0.100000 0.090264 0.049999
v 0.100000 1.990264 0.049999
v 0.100000 2.090264 0.049999
v 0.200000 0.090264 0.049999
v 0.200000 1.990264 0.049999
v -0.200000 0.090264 -0.050001
v -0.200000 2.290264 -0.050000
v -0.100000 0.090264 -0.050001
v -0.100000 2.190264 -0.050001
v -0.100000 2.290264 -0.050000
v 0.000000 2.090264 -0.050001
v 0.000000 2.190264 -0.050001
v -0.100000 -0.109736 -0.050001
v 0.100000 -0.109736 -0.050001
v 0.100000 0.090264 -0.050001
v 0.100000 1.990264 -0.050001
v 0.100000 2.090264 -0.050001
v 0.200000 0.090264 -0.050001
v 0.200000 1.990264 -0.050001
v -0.100000 -0.109736 -0.050001
v 0.100000 -0.109736 0.049999
v -0.100000 -0.109736 0.049999
v 0.100000 -0.109736 -0.050001
v -0.200000 0.090264 -0.050001
v -0.100000 0.090264 0.049999
v -0.200000 0.090264 0.049999
v -0.100000 0.090264 -0.050001
v 0.100000 0.090264 -0.050001
v 0.200000 0.090264 0.049999
v 0.100000 0.090264 0.049999
v 0.200000 0.090264 -0.050001
v 0.100000 1.990264 0.049999
v 0.200000 1.990264 0.049999
v 0.100000 1.990264 -0.050001
v 0.200000 1.990264 -0.050001
v 0.000000 2.090264 0.049999
v 0.100000 2.090264 0.049999
v 0.000000 2.090264 -0.050001
v 0.100000 2.090264 -0.050001
v -0.100000 2.190264 0.049999
v 0.000000 2.190264 0.049999
v -0.100000 2.190264 -0.050001
v 0.000000 2.190264 -0.050001
v -0.200000 2.290264 0.049999
v -0.100000 2.290264 0.049999
v -0.200000 2.290264 -0.050000
v -0.100000 2.290264 -0.050000
vt 0.986328 0.500000
vt 0.986328 0.500000
vt 0.986328 0.500000
vt 0.986328 0.500000
vt 0.990234 0.500000
vt 0.990234 0.500000
vt 0.990234 0.500000
vt 0.990234 0.500000
vt 0.986328 0.500000
vt 0.986328 0.500000
vt 0.986328 0.500000
vt 0.986328 0.500000
vt 0.986328 0.500000
vt 0.986328 0.500000
vt 0.986328 0.500000
vt 0.986328 0.500000
vt 0.990234 0.500000
vt 0.990234 0.500000
vt 0.990234 0.500000
vt 0.990234 0.500000
vt 0.986328 0.500000
vt 0.986328 0.500000
vt 0.986328 0.500000
vt 0.986328 0.500000
vt 0.986328 0.500000
vt 0.986328 0.500000
vt 0.986328 0.500000
vt 0.986328 0.500000
vt 0.986328 0.500000
vt 0.986328 0.500000
vt 0.986328 0.500000
vt 0.986328 0.500000
vt 0.986328 0.500000
vt 0.986328 0.500000
vt 0.986328 0.500000
vt 0.990234 0.500000
vt 0.990234 0.500000
vt 0.990234 0.500000
vt 0.986328 0.500000
vt 0.990234 0.500000
vt 0.986328 0.500000
vt 0.986328 0.500000
vt 0.986328 0.500000
vt 0.986328 0.500000
vt 0.986328 0.500000
vt 0.986328 0.500000
vt 0.986328 0.500000
vt 0.986328 0.500000
vt 0.986328 0.500000
vt 0.986328 0.500000
vt 0.986328 0.500000
vt 0.990234 0.500000
vt 0.990234 0.500000
vt 0.990234 0.500000
vt 0.986328 0.500000
vt 0.990234 0.500000
vt 0.986328 0.500000
vt 0.986328 0.500000
vt 0.986328 0.500000
vt 0.986328 0.500000
vt 0.990234 0.500000
vt 0.990234 0.500000
vt 0.990234 0.500000
vt 0.990234 0.500000
vt 0.986328 0.500000
vt 0.986328 0.500000
vt 0.986328 0.500000
vt 0.986328 0.500000
vt 0.986328 0.500000
vt 0.986328 0.500000
vt 0.986328 0.500000
vt 0.986328 0.500000
vt 0.986328 0.500000
vt 0.986328 0.500000
vt 0.986328 0.500000
vt 0.986328 0.500000
vt 0.986328 0.500000
vt 0.986328 0.500000
vt 0.986328 0.500000
vt 0.986328 0.500000
vt 0.986328 0.500000
vt 0.986328 0.500000
vt 0.986328 0.500000
vt 0.986328 0.500000
vt 0.986328 0.500000
vt 0.986328 0.500000
vt 0.986328 0.500000
vt 0.986328 0.500000
vn -1.0000 0.0000 0.0000
vn 1.0000 0.0000 0.0000
vn -0.0000 -0.0000 1.0000
vn 0.0000 0.0000 -1.0000
vn 0.0000 -1.0000 -0.0000
vn 0.0000 1.0000 0.0000
usemtl palette
s 1
f 1/1/1 2/2/1 3/3/1
f 4/4/1 2/2/1 1/1/1
f 5/5/1 6/6/1 7/7/1
f 8/8/1 6/6/1 5/5/1
f 9/9/2 10/10/2 11/11/2
f 11/11/2 10/10/2 12/12/2
f 13/13/2 14/14/2 15/15/2
f 15/15/2 14/14/2 16/16/2
f 17/17/2 18/18/2 19/19/2
f 19/19/2 18/18/2 20/20/2
f 21/21/2 22/22/2 23/23/2
f 23/23/2 22/22/2 24/24/2
f 25/25/2 26/26/2 27/27/2
f 27/27/2 26/26/2 28/28/2
f 29/29/3 30/30/3 31/31/3
f 32/32/3 30/30/3 29/29/3
f 33/33/3 30/30/3 32/32/3
f 34/34/3 32/32/3 29/29/3
f 35/35/3 32/32/3 34/34/3
f 36/36/3 29/37/3 37/38/3
f 38/39/3 34/34/3 29/29/3
f 38/40/3 29/37/3 36/36/3
f 39/41/3 34/34/3 38/39/3
f 40/42/3 34/34/3 39/41/3
f 41/43/3 39/41/3 38/39/3
f 42/44/3 39/41/3 41/43/3
f 43/45/4 44/46/4 45/47/4
f 45/47/4 44/46/4 46/48/4
f 46/48/4 44/46/4 47/49/4
f 45/47/4 46/48/4 48/50/4
f 48/50/4 46/48/4 49/51/4
f 50/52/4 45/53/4 51/54/4
f 45/47/4 48/50/4 52/55/4
f 51/54/4 45/53/4 52/56/4
f 52/55/4 48/50/4 53/57/4
f 53/57/4 48/50/4 54/58/4
f 52/55/4 53/57/4 55/59/4
f 55/59/4 53/57/4 56/60/4
f 57/61/5 58/62/5 59/63/5
f 60/64/5 58/62/5 57/61/5
f 61/65/5 62/66/5 63/67/5
f 64/68/5 62/66/5 61/65/5
f 65/69/5 66/70/5 67/71/5
f 68/72/5 66/70/5 65/69/5
f 69/73/6 70/74/6 71/75/6
f 71/75/6 70/74/6 72/76/6
f 73/77/6 74/78/6 75/79/6
f 75/79/6 74/78/6 76/80/6
f 77/81/6 78/82/6 79/83/6
f 79/83/6 78/82/6 80/84/6
f 81/85/6 82/86/6 83/87/6
f 83/87/6 82/86/6 84/88/6
